<svg width="24" height="24" viewBox="0 0 24 24" fill="none" xmlns="http://www.w3.org/2000/svg">
<g opacity="0.9" clip-path="url(#clip0_579_1489)">
<path d="M11.513 23.1044C17.8715 23.1044 23.026 17.9498 23.026 11.5914C23.026 5.23292 17.8715 0.0783691 11.513 0.0783691C5.15455 0.0783691 0 5.23292 0 11.5914C0 17.9498 5.15455 23.1044 11.513 23.1044Z" fill="#D80027"/>
<path d="M6.30124 7.08521L7.29514 10.1433H10.5107L7.91126 12.0367L8.90516 15.0948L6.30124 13.206L3.69732 15.0948L4.69571 12.0367L2.0918 10.1433H5.30734L6.30124 7.08521Z" fill="#FFDA44"/>
<path d="M13.6505 17.9102L12.8905 16.9747L11.7661 17.411L12.4182 16.3991L11.6582 15.4591L12.823 15.7695L13.4796 14.7576L13.5426 15.9628L14.7118 16.2731L13.583 16.7049L13.6505 17.9102Z" fill="#FFDA44"/>
<path d="M15.1603 15.1668L15.5201 14.0155L14.5352 13.3185L15.7404 13.3005L16.0957 12.1492L16.487 13.2915L17.6922 13.278L16.7253 13.9975L17.1121 15.1399L16.1272 14.4428L15.1603 15.1668Z" fill="#FFDA44"/>
<path d="M17.1991 8.52883L16.6684 9.61267L17.5319 10.4537L16.3401 10.2828L15.8094 11.3621L15.6025 10.1748L14.4062 10.0039L15.4766 9.44178L15.2697 8.25L16.1332 9.09099L17.1991 8.52883Z" fill="#FFDA44"/>
<path d="M13.6818 5.24585L13.5919 6.44662L14.7117 6.90085L13.5379 7.18867L13.4524 8.39394L12.8183 7.36856L11.6445 7.65639L12.4226 6.73445L11.7839 5.71357L12.9038 6.16779L13.6818 5.24585Z" fill="#FFDA44"/>
</g>
<defs>
<clipPath id="clip0_579_1489">
<rect width="23.026" height="23.026" fill="white" transform="translate(0 0.0783691)"/>
</clipPath>
</defs>
</svg>
