<svg width="63" height="63" viewBox="0 0 63 63" fill="none" xmlns="http://www.w3.org/2000/svg">
<path d="M33.8625 27.5625C32.2875 27.1687 30.7125 26.3812 29.5312 25.2C28.35 24.8062 27.9563 23.625 27.9563 22.8375C27.9563 22.05 28.35 20.8687 29.1375 20.475C30.3187 19.6875 31.5 18.9 32.6813 19.2938C35.0438 19.2938 37.0125 20.475 38.1937 22.05L41.7375 17.325C40.5563 16.1438 39.375 15.3562 38.1937 14.5687C37.0125 13.7812 35.4375 13.3875 33.8625 13.3875V7.875H29.1375V13.3875C27.1687 13.7813 25.2 14.9625 23.625 16.5375C22.05 18.5062 20.8688 20.8688 21.2625 23.2313C21.2625 25.5938 22.05 27.9562 23.625 29.5312C25.5938 31.5 28.35 32.6813 30.7125 33.8625C31.8938 34.2563 33.4688 35.0438 34.65 35.8313C35.4375 36.6188 35.8313 37.8 35.8313 38.9812C35.8313 40.1625 35.4375 41.3438 34.65 42.525C33.4688 43.7063 31.8938 44.1 30.7125 44.1C29.1375 44.1 27.1688 43.7063 25.9875 42.525C24.8063 41.7375 23.625 40.5563 22.8375 39.375L18.9 43.7063C20.0813 45.2813 21.2625 46.4625 22.8375 47.6438C24.8063 48.825 27.1687 50.0062 29.5312 50.0062V55.125H33.8625V49.2188C36.225 48.825 38.1938 47.6437 39.7688 46.0687C41.7375 44.1 42.9187 40.95 42.9187 38.1937C42.9187 35.8312 42.1312 33.075 40.1625 31.5C38.1937 29.5312 36.225 28.35 33.8625 27.5625V27.5625ZM31.5 0C14.175 0 0 14.175 0 31.5C0 48.825 14.175 63 31.5 63C48.825 63 63 48.825 63 31.5C63 14.175 48.825 0 31.5 0ZM31.5 58.6687C16.5375 58.6687 4.33125 46.4625 4.33125 31.5C4.33125 16.5375 16.5375 4.33125 31.5 4.33125C46.4625 4.33125 58.6687 16.5375 58.6687 31.5C58.6687 46.4625 46.4625 58.6687 31.5 58.6687V58.6687Z" fill="url(#paint0_linear_427_609)"/>
<defs>
<linearGradient id="paint0_linear_427_609" x1="-32.9" y1="50.1513" x2="74.3082" y2="57.9892" gradientUnits="userSpaceOnUse">
<stop stop-color="#6AE6C4"/>
<stop offset="1" stop-color="#8C84F6"/>
</linearGradient>
</defs>
</svg>
