<svg width="29" height="21" viewBox="0 0 29 21" fill="none" xmlns="http://www.w3.org/2000/svg">
<path opacity="0.7" d="M24.5496 1.74166C22.7009 0.936714 20.7193 0.341753 18.647 0.00344163C18.6286 2.10942e-05 18.6095 0.00222541 18.5924 0.00974978C18.5753 0.0172741 18.561 0.0297463 18.5516 0.0454389C18.2978 0.475911 18.0151 1.03704 17.8169 1.48034C15.6192 1.16331 13.3848 1.16331 11.187 1.48034C10.9663 0.989048 10.7174 0.510003 10.4415 0.0454389C10.4321 0.0295531 10.418 0.0167988 10.4009 0.0088781C10.3839 0.000957379 10.3647 -0.00175317 10.346 0.00110835C8.27501 0.339419 6.2934 0.934381 4.44349 1.74049C4.42758 1.74694 4.41409 1.75793 4.40483 1.77199C0.644604 7.10914 -0.386075 12.3145 0.120202 17.4545C0.121611 17.4671 0.125658 17.4792 0.132098 17.4903C0.138537 17.5013 0.147234 17.5109 0.15766 17.5186C2.3524 19.0614 4.80035 20.2366 7.39899 20.9951C7.41711 21.0004 7.43648 21.0004 7.45459 20.995C7.4727 20.9896 7.48869 20.9791 7.50049 20.9647C8.05968 20.2427 8.55521 19.4767 8.98186 18.6747C8.98778 18.6637 8.9912 18.6517 8.99187 18.6393C8.99254 18.627 8.99046 18.6146 8.98576 18.6031C8.98106 18.5916 8.97386 18.5812 8.96464 18.5727C8.95542 18.5641 8.9444 18.5575 8.93232 18.5534C8.15177 18.2696 7.39547 17.9271 6.67039 17.5291C6.65736 17.5219 6.64638 17.5118 6.63844 17.4995C6.63049 17.4872 6.62583 17.4732 6.62487 17.4587C6.62392 17.4443 6.62669 17.4298 6.63295 17.4166C6.6392 17.4035 6.64875 17.392 6.66072 17.3833C6.81297 17.2748 6.96521 17.1616 7.11021 17.0485C7.12326 17.0383 7.13898 17.0318 7.15562 17.0298C7.17226 17.0277 7.18917 17.0302 7.20446 17.0368C11.9494 19.0947 17.0883 19.0947 21.7777 17.0368C21.7931 17.0298 21.8102 17.027 21.827 17.0289C21.8439 17.0307 21.8599 17.0371 21.8732 17.0473C22.0182 17.1616 22.1692 17.2748 22.3227 17.3833C22.3348 17.3918 22.3445 17.4031 22.3509 17.4162C22.3574 17.4293 22.3604 17.4436 22.3597 17.4581C22.359 17.4725 22.3545 17.4866 22.3468 17.499C22.3391 17.5114 22.3283 17.5217 22.3154 17.5291C21.5929 17.9304 20.8413 18.2699 20.0523 18.5522C20.0402 18.5565 20.0291 18.5632 20.0199 18.5719C20.0107 18.5806 20.0035 18.591 19.9988 18.6026C19.9941 18.6142 19.992 18.6267 19.9927 18.6391C19.9934 18.6515 19.9968 18.6637 20.0028 18.6747C20.4377 19.4762 20.9356 20.2391 21.4829 20.9636C21.4943 20.9784 21.5102 20.9895 21.5283 20.9954C21.5465 21.0012 21.5661 21.0015 21.5844 20.9962C24.1875 20.2399 26.6395 19.0641 28.8366 17.5186C28.8473 17.5114 28.8563 17.502 28.863 17.4912C28.8697 17.4803 28.8739 17.4682 28.8753 17.4556C29.4794 11.513 27.8627 6.34969 24.587 1.77433C24.579 1.75946 24.5657 1.74787 24.5496 1.74166ZM9.69113 14.3245C8.26293 14.3245 7.08483 13.0774 7.08483 11.548C7.08483 10.0174 8.23997 8.77153 9.69113 8.77153C11.1532 8.77153 12.3204 10.0279 12.2974 11.548C12.2974 13.0786 11.1423 14.3245 9.69113 14.3245ZM19.3273 14.3245C17.8979 14.3245 16.721 13.0774 16.721 11.548C16.721 10.0174 17.8749 8.77153 19.3273 8.77153C20.7894 8.77153 21.9566 10.0279 21.9336 11.548C21.9336 13.0786 20.7906 14.3245 19.3273 14.3245Z" fill="#8C84F7"/>
</svg>
