<svg width="24" height="24" viewBox="0 0 24 24" fill="none" xmlns="http://www.w3.org/2000/svg">
<g opacity="0.9" clip-path="url(#clip0_579_1492)">
<path d="M11.513 23.0783C17.8715 23.0783 23.026 17.9237 23.026 11.5653C23.026 5.20679 17.8715 0.0522461 11.513 0.0522461C5.15455 0.0522461 0 5.20679 0 11.5653C0 17.9237 5.15455 23.0783 11.513 23.0783Z" fill="#F0F0F0"/>
<path d="M11.5132 0.0522461C6.94873 0.0522461 3.00481 2.70856 1.14258 6.55961H21.8838C20.0216 2.70856 16.0776 0.0522461 11.5132 0.0522461Z" fill="#FF9811"/>
<path d="M11.5132 23.0784C16.0776 23.0784 20.0216 20.4221 21.8838 16.571H1.14258C3.00481 20.4221 6.94873 23.0784 11.5132 23.0784Z" fill="#6DA544"/>
<path d="M11.5123 15.5698C13.7239 15.5698 15.5168 13.7769 15.5168 11.5653C15.5168 9.35367 13.7239 7.56079 11.5123 7.56079C9.30069 7.56079 7.50781 9.35367 7.50781 11.5653C7.50781 13.7769 9.30069 15.5698 11.5123 15.5698Z" fill="#0052B4"/>
<path d="M11.5126 14.0681C12.8949 14.0681 14.0154 12.9476 14.0154 11.5653C14.0154 10.1831 12.8949 9.0625 11.5126 9.0625C10.1303 9.0625 9.00977 10.1831 9.00977 11.5653C9.00977 12.9476 10.1303 14.0681 11.5126 14.0681Z" fill="#F0F0F0"/>
<path d="M11.5126 8.47681L12.2847 10.228L14.1872 10.021L13.0568 11.5653L14.1872 13.1095L12.2847 12.9026L11.5126 14.6537L10.7404 12.9026L8.83789 13.1094L9.96832 11.5653L8.83789 10.021L10.7404 10.228L11.5126 8.47681Z" fill="#0052B4"/>
</g>
<defs>
<clipPath id="clip0_579_1492">
<rect width="23.026" height="23.026" fill="white" transform="translate(0 0.0522461)"/>
</clipPath>
</defs>
</svg>
