<svg width="24" height="24" viewBox="0 0 24 24" fill="none" xmlns="http://www.w3.org/2000/svg">
<g opacity="0.9" clip-path="url(#clip0_579_1498)">
<path d="M1.1424 6.53361C0.410511 8.04721 0 9.74524 0 11.5392C0 13.3333 0.410511 15.0313 1.1424 16.5449L11.513 17.546L21.8836 16.5449C22.6155 15.0313 23.026 13.3333 23.026 11.5392C23.026 9.74524 22.6155 8.04721 21.8836 6.53361L11.513 5.53247L1.1424 6.53361Z" fill="#F0F0F0"/>
<path d="M1.14258 16.5447C3.00472 20.3957 6.94833 23.052 11.5128 23.052C16.0772 23.052 20.0208 20.3957 21.883 16.5447H1.14258Z" fill="black"/>
<path d="M1.14258 6.53349H21.883C20.0208 2.68243 16.0772 0.026123 11.5128 0.026123C6.94833 0.026123 3.00472 2.68243 1.14258 6.53349Z" fill="#496E2D"/>
<path d="M3.37207 3.39819C-1.12402 7.89429 -1.12402 15.184 3.37207 19.6801C5.23003 17.8221 7.01693 16.0352 11.513 11.5391L3.37207 3.39819Z" fill="#D80027"/>
</g>
<defs>
<clipPath id="clip0_579_1498">
<rect width="23.026" height="23.026" fill="white" transform="translate(0 0.026123)"/>
</clipPath>
</defs>
</svg>
