<svg width="24" height="16" viewBox="0 0 24 16" fill="none" xmlns="http://www.w3.org/2000/svg">
<g opacity="0.7">
<path d="M23.3378 2.41251C23.2073 1.94693 22.953 1.52542 22.6021 1.19279C22.2413 0.849925 21.799 0.604668 21.3171 0.480165C19.5134 0.00476245 12.2873 0.00476256 12.2873 0.00476256C9.27482 -0.0295119 6.26308 0.121236 3.26907 0.456154C2.78713 0.589856 2.3457 0.840593 1.98405 1.18606C1.6287 1.52797 1.37131 1.94959 1.23685 2.41155C0.913858 4.15156 0.756926 5.91833 0.768171 7.68803C0.756646 9.45614 0.913192 11.2223 1.23685 12.9645C1.36843 13.4245 1.62485 13.8442 1.98117 14.1833C2.33748 14.5223 2.78119 14.7672 3.26907 14.8969C5.09673 15.3713 12.2873 15.3713 12.2873 15.3713C15.3036 15.4056 18.3192 15.2549 21.3171 14.9199C21.799 14.7954 22.2413 14.5501 22.6021 14.2073C22.9529 13.8747 23.2068 13.4531 23.3368 12.9876C23.6682 11.2482 23.8294 9.48072 23.818 7.71012C23.8429 5.93202 23.682 4.15619 23.3378 2.41155V2.41251ZM9.99001 10.9765V4.40055L16.0022 7.68899L9.99001 10.9765Z" fill="#8C84F7"/>
</g>
</svg>
