<svg width="58" height="44" viewBox="0 0 58 44" fill="none" xmlns="http://www.w3.org/2000/svg">
<path d="M49.0992 3.64919C45.4018 1.96264 41.4385 0.716053 37.2941 0.00721104C37.2572 4.41972e-05 37.219 0.00466277 37.1848 0.0204281C37.1506 0.0361934 37.122 0.0623255 37.1032 0.0952053C36.5957 0.997146 36.0302 2.17285 35.6339 3.10167C31.2383 2.43741 26.7696 2.43741 22.374 3.10167C21.9326 2.07229 21.4348 1.06858 20.883 0.0952053C20.8643 0.0619208 20.836 0.0351975 20.8019 0.0186017C20.7677 0.00200594 20.7294 -0.00367331 20.6921 0.00232225C16.55 0.711165 12.5868 1.95775 8.88699 3.64675C8.85516 3.66025 8.82817 3.68328 8.80966 3.71275C1.28921 14.8953 -0.772149 25.8017 0.240405 36.5713C0.243222 36.5976 0.251317 36.6232 0.264196 36.6463C0.277075 36.6694 0.294469 36.6896 0.315319 36.7057C4.70481 39.9381 9.6007 42.4004 14.798 43.9897C14.8342 44.0009 14.873 44.0009 14.9092 43.9896C14.9454 43.9782 14.9774 43.9561 15.001 43.9261C16.1194 42.4133 17.1104 40.8083 17.9637 39.128C17.9756 39.105 17.9824 39.0797 17.9837 39.0538C17.9851 39.028 17.9809 39.0021 17.9715 38.978C17.9621 38.9539 17.9477 38.9321 17.9293 38.9141C17.9108 38.8962 17.8888 38.8824 17.8646 38.8738C16.3035 38.2791 14.7909 37.5616 13.3408 36.7277C13.3147 36.7126 13.2928 36.6913 13.2769 36.6655C13.261 36.6398 13.2517 36.6105 13.2497 36.5802C13.2478 36.5499 13.2534 36.5196 13.2659 36.492C13.2784 36.4644 13.2975 36.4404 13.3214 36.4222C13.6259 36.1948 13.9304 35.9577 14.2204 35.7206C14.2465 35.6993 14.278 35.6857 14.3112 35.6814C14.3445 35.6771 14.3783 35.6822 14.4089 35.6962C23.8989 40.0079 34.1767 40.0079 43.5555 35.6962C43.5861 35.6814 43.6203 35.6756 43.6541 35.6795C43.6878 35.6834 43.7198 35.6968 43.7464 35.7182C44.0364 35.9577 44.3385 36.1948 44.6454 36.4222C44.6695 36.4401 44.689 36.4637 44.7019 36.4911C44.7148 36.5184 44.7208 36.5486 44.7193 36.5789C44.7179 36.6091 44.7091 36.6386 44.6936 36.6645C44.6782 36.6905 44.6566 36.7122 44.6309 36.7277C43.1857 37.5685 41.6826 38.2798 40.1046 38.8713C40.0803 38.8802 40.0583 38.8942 40.0398 38.9125C40.0214 38.9307 40.007 38.9527 39.9976 38.977C39.9882 39.0013 39.9841 39.0273 39.9854 39.0533C39.9868 39.0794 39.9936 39.1048 40.0055 39.128C40.8755 40.8072 41.8711 42.4058 42.9658 43.9237C42.9886 43.9548 43.0203 43.9781 43.0566 43.9903C43.093 44.0026 43.1321 44.0032 43.1688 43.9921C48.375 42.4073 53.2789 39.9438 57.6732 36.7057C57.6947 36.6905 57.7127 36.6709 57.726 36.6481C57.7393 36.6254 57.7477 36.6 57.7506 36.5737C58.9589 24.1225 55.7255 13.3041 49.1741 3.71763C49.158 3.68648 49.1314 3.66219 49.0992 3.64919ZM19.3823 30.0132C16.5259 30.0132 14.1697 27.4003 14.1697 24.1958C14.1697 20.9889 16.4799 18.3784 19.3823 18.3784C22.3064 18.3784 24.6408 21.0109 24.5949 24.1958C24.5949 27.4027 22.2846 30.0132 19.3823 30.0132ZM38.6546 30.0132C35.7958 30.0132 33.442 27.4003 33.442 24.1958C33.442 20.9889 35.7499 18.3784 38.6546 18.3784C41.5787 18.3784 43.9131 21.0109 43.8672 24.1958C43.8672 27.4027 41.5811 30.0132 38.6546 30.0132Z" fill="url(#paint0_linear_427_611)"/>
<defs>
<linearGradient id="paint0_linear_427_611" x1="-30.2889" y1="35.0263" x2="68.0252" y2="44.5009" gradientUnits="userSpaceOnUse">
<stop stop-color="#6AE6C4"/>
<stop offset="1" stop-color="#8C84F6"/>
</linearGradient>
</defs>
</svg>
