<svg width="67" height="67" viewBox="0 0 67 67" fill="none" xmlns="http://www.w3.org/2000/svg">
<path d="M43.704 5.23438C39.6347 6.57804 36.0745 9.13538 33.5021 12.5625C30.9286 9.13469 27.3668 6.57728 23.296 5.23438C24.4585 3.61349 25.9909 2.29312 27.7658 1.3828C29.5408 0.472476 31.5073 -0.00156304 33.5021 3.87189e-06C37.7026 3.87189e-06 41.4257 2.06444 43.704 5.23438ZM6.80794 38.6088C7.97417 32.812 10.9954 27.5522 15.4152 23.6239C19.8351 19.6956 25.4134 17.3122 31.3076 16.8338C30.0728 14.6665 28.3696 12.8024 26.3223 11.3775C24.275 9.95253 21.9352 9.00274 19.4739 8.59746C17.0126 8.19218 14.4918 8.34164 12.0956 9.03492C9.6994 9.7282 7.4883 10.9478 5.62374 12.6047C3.75918 14.2616 2.28822 16.3139 1.31827 18.6118C0.348322 20.9097 -0.0961381 23.3953 0.017346 25.8869C0.13083 28.3785 0.799394 30.8133 1.97422 33.0136C3.14905 35.2139 4.80048 37.124 6.80794 38.6046V38.6088ZM60.1921 38.6088C62.1995 37.1282 63.851 35.218 65.0258 33.0178C66.2006 30.8175 66.8692 28.3827 66.9827 25.8911C67.0961 23.3995 66.6517 20.9139 65.6817 18.616C64.7118 16.3181 63.2408 14.2658 61.3763 12.6089C59.5117 10.952 57.3006 9.73239 54.9044 9.03911C52.5082 8.34582 49.9874 8.19637 47.5261 8.60165C45.0648 9.00693 42.725 9.95671 40.6777 11.3817C38.6304 12.8066 36.9272 14.6707 35.6924 16.8379C41.586 17.3161 47.1639 19.6989 51.5837 23.6264C56.0034 27.5539 59.025 32.8128 60.1921 38.6088ZM56.5318 43.9688C56.5318 50.077 54.105 55.9351 49.7853 60.2543C45.4656 64.5735 39.6069 67 33.4979 67C27.3889 67 21.5302 64.5735 17.2105 60.2543C12.8908 55.9351 10.464 50.077 10.464 43.9688C10.464 37.8605 12.8908 32.0024 17.2105 27.6832C21.5302 23.364 27.3889 20.9375 33.4979 20.9375C39.6069 20.9375 45.4656 23.364 49.7853 27.6832C54.105 32.0024 56.5318 37.8605 56.5318 43.9688ZM25.122 35.5938C25.122 36.1491 25.3426 36.6816 25.7353 37.0743C26.128 37.4669 26.6606 37.6875 27.2159 37.6875H36.597C36.1698 38.2989 35.7175 38.9856 35.2569 39.7184C33.2341 42.9512 30.9516 47.4486 30.3737 52.0841C30.3325 52.3602 30.347 52.6417 30.4162 52.9121C30.4854 53.1825 30.608 53.4364 30.7768 53.6587C30.9455 53.8811 31.1571 54.0674 31.3989 54.2068C31.6408 54.3462 31.908 54.4359 32.185 54.4705C32.462 54.5051 32.7432 54.484 33.0119 54.4084C33.2806 54.3328 33.5315 54.2043 33.7498 54.0303C33.9681 53.8563 34.1494 53.6405 34.2831 53.3954C34.4168 53.1504 34.5001 52.8811 34.5281 52.6034C34.9972 48.8639 36.9027 44.9863 38.8083 41.9378C39.8779 40.2328 41.0572 38.599 42.3387 37.0468L42.389 36.9882L42.4057 36.9714C42.6705 36.6685 42.8423 36.2957 42.9007 35.8977C42.9591 35.4996 42.9016 35.0932 42.7351 34.727C42.5685 34.3608 42.3 34.0503 41.9616 33.8327C41.6231 33.6151 41.2292 33.4996 40.8269 33.5H27.2159C26.6606 33.5 26.128 33.7206 25.7353 34.1133C25.3426 34.5059 25.122 35.0385 25.122 35.5938Z" fill="url(#paint0_linear_427_612)"/>
<defs>
<linearGradient id="paint0_linear_427_612" x1="-34.9889" y1="53.3355" x2="79.0262" y2="61.6711" gradientUnits="userSpaceOnUse">
<stop stop-color="#6AE6C4"/>
<stop offset="1" stop-color="#8C84F6"/>
</linearGradient>
</defs>
</svg>
