<svg width="59" height="46" viewBox="0 0 59 46" fill="none" xmlns="http://www.w3.org/2000/svg">
<path d="M10.6627 11.1515C10.6627 9.11819 11.4865 7.16814 12.9529 5.73036C14.4193 4.29258 16.4081 3.48485 18.4819 3.48485C20.5557 3.48485 22.5446 4.29258 24.011 5.73036C25.4774 7.16814 26.3012 9.11819 26.3012 11.1515C26.3012 13.1848 25.4774 15.1349 24.011 16.5727C22.5446 18.0104 20.5557 18.8182 18.4819 18.8182C16.4081 18.8182 14.4193 18.0104 12.9529 16.5727C11.4865 15.1349 10.6627 13.1848 10.6627 11.1515ZM18.4819 0C15.4655 0 12.5726 1.17489 10.4397 3.2662C8.30671 5.35752 7.10843 8.19395 7.10843 11.1515C7.10843 14.1091 8.30671 16.9455 10.4397 19.0368C12.5726 21.1281 15.4655 22.303 18.4819 22.303C21.4984 22.303 24.3913 21.1281 26.5242 19.0368C28.6571 16.9455 29.8554 14.1091 29.8554 11.1515C29.8554 8.19395 28.6571 5.35752 26.5242 3.2662C24.3913 1.17489 21.4984 0 18.4819 0ZM39.0964 13.9394C39.0964 12.6455 39.6206 11.4045 40.5538 10.4896C41.487 9.57462 42.7526 9.06061 44.0723 9.06061C45.392 9.06061 46.6576 9.57462 47.5908 10.4896C48.5239 11.4045 49.0482 12.6455 49.0482 13.9394C49.0482 15.2333 48.5239 16.4743 47.5908 17.3892C46.6576 18.3042 45.392 18.8182 44.0723 18.8182C42.7526 18.8182 41.487 18.3042 40.5538 17.3892C39.6206 16.4743 39.0964 15.2333 39.0964 13.9394ZM44.0723 5.57576C41.81 5.57576 39.6403 6.45692 38.0406 8.02541C36.4409 9.5939 35.5422 11.7212 35.5422 13.9394C35.5422 16.1576 36.4409 18.2849 38.0406 19.8534C39.6403 21.4219 41.81 22.303 44.0723 22.303C46.3346 22.303 48.5043 21.4219 50.104 19.8534C51.7037 18.2849 52.6024 16.1576 52.6024 13.9394C52.6024 11.7212 51.7037 9.5939 50.104 8.02541C48.5043 6.45692 46.3346 5.57576 44.0723 5.57576ZM44.0723 43.2121C40.9787 43.2121 38.4964 42.7215 36.5146 41.9269L36.779 41.5924C37.4814 40.6849 38.0202 39.7761 38.4325 38.9146C39.8826 39.4095 41.7251 39.7273 44.0709 39.7273C50.15 39.7273 52.8469 37.5904 54.1122 35.781C54.8328 34.7414 55.2842 33.5453 55.4273 32.2962C55.4355 32.2146 55.4411 32.1328 55.4444 32.0508V31.7121C55.4444 30.7503 54.6482 29.9697 53.6673 29.9697H39.6125C39.3205 28.6814 38.7075 27.4841 37.8282 26.4848H53.6687C55.0826 26.4848 56.4387 27.0356 57.4385 28.0159C58.4383 28.9962 59 30.3258 59 31.7121V32.1261L58.9957 32.246C58.9901 32.3436 58.9815 32.4746 58.9673 32.6349C58.7657 34.469 58.106 36.2261 57.0466 37.7507C55.0207 40.6431 51.1452 43.2121 44.0723 43.2121ZM5.33133 26.4848C3.91737 26.4848 2.56133 27.0356 1.56151 28.0159C0.561692 28.9962 0 30.3258 0 31.7121V33.5284L0.00568667 33.6636C0.0113734 33.7752 0.0227469 33.9229 0.0426506 34.1069C0.0838795 34.4721 0.162072 34.9739 0.315614 35.5705C0.723054 37.1419 1.44824 38.6171 2.44814 39.9085C4.94605 43.1368 9.70443 46 18.4819 46C27.2608 46 32.0192 43.1368 34.5143 39.9085C35.5148 38.6168 36.2405 37.1411 36.6482 35.5691C36.8018 34.9739 36.88 34.4721 36.9212 34.1055C36.9427 33.9137 36.9569 33.7212 36.9639 33.5284V31.7121C36.9639 31.0257 36.826 30.3459 36.558 29.7117C36.2901 29.0775 35.8974 28.5013 35.4023 28.0159C34.9073 27.5305 34.3196 27.1454 33.6727 26.8828C33.0259 26.6201 32.3326 26.4848 31.6325 26.4848H5.33133ZM3.55564 33.488L3.55422 33.4434V31.7121C3.55422 30.7503 4.35036 29.9697 5.33133 29.9697H31.6325C32.6135 29.9697 33.4096 30.7503 33.4096 31.7121V33.4434L33.4082 33.488C33.376 33.9019 33.3075 34.3123 33.2035 34.7147C32.9125 35.8338 32.3952 36.8842 31.6823 37.8036C30.0019 39.9782 26.4078 42.5152 18.4819 42.5152C10.556 42.5152 6.962 39.9782 5.28157 37.8036C4.5688 36.8847 4.05151 35.8347 3.76036 34.7161C3.65634 34.3132 3.58785 33.9023 3.55564 33.488Z" fill="url(#paint0_linear_466_654)"/>
<defs>
<linearGradient id="paint0_linear_466_654" x1="-30.8111" y1="36.6184" x2="69.2471" y2="46.0009" gradientUnits="userSpaceOnUse">
<stop stop-color="#6AE6C4"/>
<stop offset="1" stop-color="#8C84F6"/>
</linearGradient>
</defs>
</svg>
