<svg width="21" height="21" viewBox="0 0 21 21" fill="none" xmlns="http://www.w3.org/2000/svg">
<g clip-path="url(#clip0_266_620)">
<path d="M10.5 21C16.299 21 21 16.299 21 10.5C21 4.70101 16.299 0 10.5 0C4.70101 0 0 4.70101 0 10.5C0 16.299 4.70101 21 10.5 21Z" fill="#F0F0F0"/>
<path d="M20.3469 14.1522C20.769 13.0147 21 11.7844 21 10.5001C21 9.21569 20.769 7.98539 20.3469 6.8479H0.653092C0.231041 7.98539 0 9.21569 0 10.5001C0 11.7844 0.231041 13.0147 0.653092 14.1522L10.5 15.0653L20.3469 14.1522Z" fill="#0052B4"/>
<path d="M10.4993 20.9999C15.0139 20.9999 18.8626 18.1505 20.3462 14.1521H0.652344C2.13592 18.1505 5.98462 20.9999 10.4993 20.9999Z" fill="#D80027"/>
</g>
<defs>
<clipPath id="clip0_266_620">
<rect width="21" height="21" fill="white"/>
</clipPath>
</defs>
</svg>
