<svg width="755" height="180" viewBox="0 0 755 180" fill="none" xmlns="http://www.w3.org/2000/svg">
<g filter="url(#filter0_d_427_166)">
<path d="M94.8 96.05C99 96.05 102.45 97.55 105.45 100.55C108.3 103.55 109.95 107 109.95 111.05C109.95 113.15 109.5 115.1 108.75 116.9C108 118.85 106.95 120.35 105.6 121.7C104.25 123.05 102.6 124.1 100.65 124.85C98.85 125.6 96.9 125.9 94.8 125.9V146C104.55 146 112.8 142.55 119.55 135.8C126.45 128.9 129.9 120.65 129.9 111.05C129.9 101.45 126.45 93.2 119.55 86.3C112.8 79.55 104.55 76.1 94.8 76.1H64.95C60.6 76.1 57.15 74.6 54.15 71.6C51.3 68.6 49.95 65.15 49.95 60.95C49.95 59 50.25 57.05 51 55.25C51.75 53.45 52.8 51.8 54.15 50.45C55.65 48.95 57.15 47.9 59.1 47.15C60.9 46.4 62.85 46.1 64.95 46.1V26C55.2 26 46.95 29.45 40.2 36.35C33.45 43.25 30 51.35 30 60.95C30 70.7 33.45 78.95 40.2 85.85C46.95 92.6 55.2 96.05 64.95 96.05H94.8ZM136.559 144.35V146H216.509V125.9H156.509L136.559 144.35ZM136.559 26L156.509 46.1H216.509V26H136.559ZM136.559 76.1V96.05H156.509H216.509V76.1H156.509H136.559ZM320.72 26V97.85L240.92 26V56.3L340.67 146V145.85V145.7V26H320.72ZM437.474 96.05C441.674 96.05 445.124 97.55 448.124 100.55C450.974 103.55 452.624 107 452.624 111.05C452.624 113.15 452.174 115.1 451.424 116.9C450.674 118.85 449.624 120.35 448.274 121.7C446.924 123.05 445.274 124.1 443.324 124.85C441.524 125.6 439.574 125.9 437.474 125.9V146C447.224 146 455.474 142.55 462.224 135.8C469.124 128.9 472.574 120.65 472.574 111.05C472.574 101.45 469.124 93.2 462.224 86.3C455.474 79.55 447.224 76.1 437.474 76.1H407.624C403.274 76.1 399.824 74.6 396.824 71.6C393.974 68.6 392.624 65.15 392.624 60.95C392.624 59 392.924 57.05 393.674 55.25C394.424 53.45 395.474 51.8 396.824 50.45C398.324 48.95 399.824 47.9 401.774 47.15C403.574 46.4 405.524 46.1 407.624 46.1V26C397.874 26 389.624 29.45 382.874 36.35C376.124 43.25 372.674 51.35 372.674 60.95C372.674 70.7 376.124 78.95 382.874 85.85C389.624 92.6 397.874 96.05 407.624 96.05H437.474ZM523.905 106.1L541.605 70.85L559.155 106.1H581.655L541.605 26L481.605 146H503.805L514.005 125.9L523.905 106.1ZM591.555 126.05H569.355L579.255 146H601.605L591.555 126.05ZM678.016 86L724.816 26H699.466L665.266 69.8L631.216 26H605.566L652.666 86L605.566 146H631.216L665.266 102.2V102.35L678.016 86ZM665.266 102.2L631.216 146L665.266 102.35V102.2Z" fill="url(#paint0_linear_427_166)"/>
</g>
<defs>
<filter id="filter0_d_427_166" x="0" y="0" width="754.816" height="180" filterUnits="userSpaceOnUse" color-interpolation-filters="sRGB">
<feFlood flood-opacity="0" result="BackgroundImageFix"/>
<feColorMatrix in="SourceAlpha" type="matrix" values="0 0 0 0 0 0 0 0 0 0 0 0 0 0 0 0 0 0 127 0" result="hardAlpha"/>
<feOffset dy="4"/>
<feGaussianBlur stdDeviation="15"/>
<feComposite in2="hardAlpha" operator="out"/>
<feColorMatrix type="matrix" values="0 0 0 0 0.548427 0 0 0 0 0.519583 0 0 0 0 0.966667 0 0 0 0.5 0"/>
<feBlend mode="normal" in2="BackgroundImageFix" result="effect1_dropShadow_427_166"/>
<feBlend mode="normal" in="SourceGraphic" in2="effect1_dropShadow_427_166" result="shape"/>
</filter>
<linearGradient id="paint0_linear_427_166" x1="-386.31" y1="214" x2="939.383" y2="421.138" gradientUnits="userSpaceOnUse">
<stop stop-color="#6AE6C4"/>
<stop offset="1" stop-color="#8C84F6"/>
</linearGradient>
</defs>
</svg>
